<svg id="Layer_1" data-name="Layer 1" xmlns="http://www.w3.org/2000/svg" viewBox="0 0 217.57 51"><defs><style>.cls-1,.cls-2{fill:#1a5eab;}.cls-2,.cls-3{fill-rule:evenodd;}.cls-3{fill:#ffc600;}</style></defs><title>logo</title><path class="cls-1" d="M92.68,20.48l3.91,12.69h-6l-2.31-8.44-3.1,3.46-.83,5H78.62L82,12.74h5.69l-1.41,8.46,7.36-8.46h5.88Z" transform="translate(-0.05 0.22)"/><path class="cls-1" d="M113.45,24.61l2.21,8.57h-6l-1.8-7.77H105.4l-1.31,7.77H98.26l3.42-20.44h8.92c2.42,0,4.22.53,5.39,1.59a5.56,5.56,0,0,1,1.75,4.34A5.87,5.87,0,0,1,113.45,24.61Zm-7.34-3.46h2.3q3.31,0,3.31-2.25,0-1.88-2.78-1.89h-2.14Z" transform="translate(-0.05 0.22)"/><path class="cls-1" d="M129.56,29h-5.47l-1.91,4.18h-5.07l9.46-20.44H133l3.17,20.44h-6Zm-.36-4.22-.82-5.92-2.69,5.92Z" transform="translate(-0.05 0.22)"/><path class="cls-1" d="M147.17,12.74l-3.41,20.44h-5.81l3.41-20.44Z" transform="translate(-0.05 0.22)"/><path class="cls-1" d="M177.42,12.74,174,33.18h-5.81l3.41-20.44Z" transform="translate(-0.05 0.22)"/><path class="cls-1" d="M188.49,29H183l-1.91,4.18H176l9.46-20.44h6.41l3.18,20.44h-6Zm-.36-4.22-.82-5.92-2.69,5.92Z" transform="translate(-0.05 0.22)"/><path class="cls-1" d="M80.21,3.54l-3,17.92a21.2,21.2,0,0,1-2,6.76,9,9,0,0,1-4.14,3.54,16,16,0,0,1-6.87,1.35q-5.16,0-8-2.2a7.45,7.45,0,0,1-2.88-6.28,19.13,19.13,0,0,1,.3-3.16l2-12H51.4l1-6h13l-3,17.92a14.08,14.08,0,0,0-.25,2.18,2.45,2.45,0,0,0,1.07,2.11,4.34,4.34,0,0,0,2.59.77,4,4,0,0,0,2.88-.95,7.06,7.06,0,0,0,1.45-3.81l3-18.22Z" transform="translate(-0.05 0.22)"/><path class="cls-1" d="M168.06,12.74l-3.41,20.44H160.1L154.26,21.4l-2,11.77h-5l3.41-20.44h5.51l5.09,11,1.85-11Z" transform="translate(-0.05 0.22)"/><path class="cls-1" d="M217.62,12.74l-3.42,20.44h-4.54L203.82,21.4l-2,11.77h-5l3.41-20.44h5.51l5.09,11,1.85-11Z" transform="translate(-0.05 0.22)"/><path class="cls-1" d="M52.92,39.69h6.24v1.9H55.23v2.34h3.68v1.88H55.23v4.12H52.92Z" transform="translate(-0.05 0.22)"/><path class="cls-1" d="M67,45.6H63.24V48h4.21v1.9H60.93V39.69h6.3v1.9h-4v2.13H67Z" transform="translate(-0.05 0.22)"/><path class="cls-1" d="M69,39.84a20.42,20.42,0,0,1,3.11-.23,6.68,6.68,0,0,1,4.21,1.09,4.53,4.53,0,0,1,1.73,3.86,5.24,5.24,0,0,1-1.69,4.15A7.4,7.4,0,0,1,71.65,50,19.84,19.84,0,0,1,69,49.88Zm2.31,8.34a4.32,4.32,0,0,0,.8,0c2.11,0,3.49-1.14,3.49-3.59a3,3,0,0,0-3.25-3.25,4.94,4.94,0,0,0-1,.09Z" transform="translate(-0.05 0.22)"/><path class="cls-1" d="M85.69,45.6H81.92V48h4.21v1.9H79.62V39.69h6.3v1.9h-4v2.13h3.77Z" transform="translate(-0.05 0.22)"/><path class="cls-1" d="M87.71,39.83a20.32,20.32,0,0,1,3.08-.21,5.22,5.22,0,0,1,3.31.81,2.6,2.6,0,0,1,1,2.16,2.71,2.71,0,0,1-1.81,2.51v0A2.55,2.55,0,0,1,94.63,47c.32,1.17.62,2.51.82,2.9H93.08a13.71,13.71,0,0,1-.7-2.38c-.29-1.29-.73-1.63-1.69-1.64H90v4H87.71ZM90,44.23h.91c1.15,0,1.84-.58,1.84-1.47s-.64-1.41-1.7-1.41a4.58,4.58,0,0,0-1,.08Z" transform="translate(-0.05 0.22)"/><path class="cls-1" d="M99.24,47.3l-.73,2.63H96.13l3.11-10.24h3l3.19,10.24H103l-.79-2.63Zm2.6-1.73-.64-2.17c-.18-.61-.36-1.37-.52-2h0c-.15.61-.3,1.38-.47,2l-.61,2.17Z" transform="translate(-0.05 0.22)"/><path class="cls-1" d="M106.84,39.69h2.31V48h4.07v1.94h-6.38Z" transform="translate(-0.05 0.22)"/><path class="cls-1" d="M125.16,49.66a6.8,6.8,0,0,1-2.61.44c-3.54,0-5.36-2.22-5.36-5.13,0-3.49,2.49-5.42,5.59-5.42a5.79,5.79,0,0,1,2.52.46l-.49,1.82a4.88,4.88,0,0,0-1.94-.38,3.08,3.08,0,0,0-3.25,3.39,3.05,3.05,0,0,0,3.27,3.34,5.52,5.52,0,0,0,1.94-.33Z" transform="translate(-0.05 0.22)"/><path class="cls-1" d="M126.7,39.83a20.3,20.3,0,0,1,3.08-.21,5.22,5.22,0,0,1,3.31.81,2.6,2.6,0,0,1,1,2.16,2.71,2.71,0,0,1-1.81,2.51v0a2.55,2.55,0,0,1,1.37,1.9c.32,1.17.62,2.51.82,2.9h-2.37a13.67,13.67,0,0,1-.7-2.38c-.29-1.29-.73-1.63-1.69-1.64H129v4H126.7ZM129,44.23h.91c1.15,0,1.84-.58,1.84-1.47s-.64-1.41-1.7-1.41a4.59,4.59,0,0,0-1,.08Z" transform="translate(-0.05 0.22)"/><path class="cls-1" d="M141.8,45.6H138V48h4.21v1.9h-6.52V39.69H142v1.9h-4v2.13h3.77Z" transform="translate(-0.05 0.22)"/><path class="cls-1" d="M143.82,39.84a20.42,20.42,0,0,1,3.11-.23,6.68,6.68,0,0,1,4.21,1.09,4.53,4.53,0,0,1,1.73,3.86,5.24,5.24,0,0,1-1.69,4.15A7.39,7.39,0,0,1,146.45,50a19.84,19.84,0,0,1-2.63-.15Zm2.31,8.34a4.33,4.33,0,0,0,.81,0c2.11,0,3.49-1.14,3.49-3.59a3,3,0,0,0-3.25-3.25,5,5,0,0,0-1,.09Z" transform="translate(-0.05 0.22)"/><path class="cls-1" d="M156.72,39.69V49.93h-2.31V39.69Z" transform="translate(-0.05 0.22)"/><path class="cls-1" d="M160.72,41.64H158V39.69h7.87v1.94H163v8.29h-2.31Z" transform="translate(-0.05 0.22)"/><path class="cls-1" d="M172.43,39.69v5.88c0,1.78.68,2.67,1.85,2.67s1.88-.85,1.88-2.67V39.69h2.31v5.74c0,3.16-1.6,4.66-4.27,4.66s-4.09-1.44-4.09-4.69V39.69Z" transform="translate(-0.05 0.22)"/><path class="cls-1" d="M180.48,49.93V39.69h2.7l2.13,3.75A32.25,32.25,0,0,1,187,47h0a42.14,42.14,0,0,1-.18-4.28v-3H189V49.93h-2.43L184.34,46a34.53,34.53,0,0,1-1.78-3.62h-.06c.08,1.37.11,2.81.11,4.48v3.08Z" transform="translate(-0.05 0.22)"/><path class="cls-1" d="M193.29,39.69V49.93H191V39.69Z" transform="translate(-0.05 0.22)"/><path class="cls-1" d="M204.67,44.7c0,3.37-2,5.39-5,5.39s-4.82-2.29-4.82-5.23,2-5.36,5-5.36S204.67,41.86,204.67,44.7Zm-7.4.12c0,2,.94,3.43,2.49,3.43s2.46-1.49,2.46-3.48-.87-3.43-2.46-3.43S197.27,42.84,197.27,44.83Z" transform="translate(-0.05 0.22)"/><path class="cls-1" d="M206.19,49.93V39.69h2.7L211,43.44A32.35,32.35,0,0,1,212.69,47h0a42.33,42.33,0,0,1-.18-4.28v-3h2.13V49.93h-2.43L210,46a34.64,34.64,0,0,1-1.78-3.62h-.06c.08,1.37.11,2.81.11,4.48v3.08Z" transform="translate(-0.05 0.22)"/><path class="cls-2" d="M47.21,32.86v0c-.22.77-.46,1.53-.74,2.24h0a37.26,37.26,0,0,0-12.6,2.36c-1.57.56-3.09,1.18-4.56,1.85l-2.92,1.35c-1.94.9-3.84,1.86-5.85,2.69A32,32,0,0,1,17.4,44.5a17.45,17.45,0,0,1-3.55.72,13.74,13.74,0,0,1-2.06,0A12,12,0,0,1,6.84,43.8c-.4-.22-.79-.45-1.18-.7L5.53,43A24.5,24.5,0,0,1,.6,35.08c-.17-.44-.33-.91-.48-1.39a1,1,0,0,1-.07-.2s0,0,0,0,.14.14.19.18c.23.21.45.42.68.62A17.79,17.79,0,0,0,4,36.42a18.82,18.82,0,0,0,8.27,2.13,28.62,28.62,0,0,0,3.36-.06,47,47,0,0,0,6-.9c1.91-.4,3.75-.87,5.58-1.35,3.66-1,7.21-2.05,11-2.82a35.14,35.14,0,0,1,5.36-.71l.84,0a12.39,12.39,0,0,1,1.4,0C46.36,32.76,46.79,32.8,47.21,32.86Z" transform="translate(-0.05 0.22)"/><path class="cls-3" d="M5.47,42.91h0a13,13,0,0,0,4.71,2,12.29,12.29,0,0,0,3.1.19,16.87,16.87,0,0,0,2.87-.45,31.27,31.27,0,0,0,4.92-1.71c2.34-1,4.54-2.1,6.83-3.13.76-.34,1.52-.7,2.3-1s1.57-.64,2.38-.95a41.48,41.48,0,0,1,7.76-2.19c.94-.17,1.91-.29,2.92-.39.5-.05,1-.09,1.54-.11s1.1,0,1.65,0h0a24.85,24.85,0,0,1-2.83,5.25,23.69,23.69,0,0,1-1.79,2.25,25.87,25.87,0,0,1-2,2,25,25,0,0,1-4.76,3.3,24.66,24.66,0,0,1-5.83,2.2,25.41,25.41,0,0,1-3.45.57,26.43,26.43,0,0,1-3.88.06,24.44,24.44,0,0,1-3.57-.49,22.37,22.37,0,0,1-3.15-.9A24.65,24.65,0,0,1,7,44.45,7,7,0,0,1,6.46,44c-.24-.26-.5-.51-.74-.78Z" transform="translate(-0.05 0.22)"/><path class="cls-1" d="M12.6,4.19a12.28,12.28,0,0,0-1.49-.38c0,.34,0,27.18,0,27.37H21.37l2.77,1.69,2.77-1.69H37.18c0-.19,0-27,0-27.37a12.21,12.21,0,0,0-1.4.36h0l-.06,0-.1,0h0a12.57,12.57,0,0,0-6,4.36l0,.06,0,0A13,13,0,0,0,27,16.4a13.16,13.16,0,0,0,.12,1.79s0,0,0,0a.13.13,0,0,0,0,0s0,0,0,.06h0a13.08,13.08,0,0,0,.37,1.74v.07l0,.06h0a13,13,0,0,0,.57,1.52h0l-1.78.87h0a4.54,4.54,0,0,0-.55-.75,3.25,3.25,0,0,0-.63-.53h0c0-1.38.13-2.85.28-4.49.13-1.44.3-2.83.46-4.17,0-.33.08-.67.12-1a29.15,29.15,0,0,0,.06-7.85,6.54,6.54,0,0,0-1.92-4,6.53,6.53,0,0,0-1.91,4,29,29,0,0,0,.06,7.85c0,.33.08.67.12,1,.16,1.34.32,2.72.46,4.17.15,1.64.25,3.11.28,4.48h0a3.22,3.22,0,0,0-.63.53,4.77,4.77,0,0,0-.54.75h0l-1.78-.87h0a13.21,13.21,0,0,0,.57-1.52h0l0-.07v-.07a12.53,12.53,0,0,0,.38-1.74h0a.46.46,0,0,0,0-.06v0a.08.08,0,0,0,0,0,13.11,13.11,0,0,0,.12-1.79,13,13,0,0,0-2.53-7.72l0,0,0-.06-.07-.09h0a12.53,12.53,0,0,0-5.91-4.26h0ZM30.81,14.32a9.22,9.22,0,0,1,.6-1.82,9,9,0,0,1,2.18-3h0V23.08h0V9.49a9.22,9.22,0,0,0,0,13.58h0a9.13,9.13,0,0,1-1.24-1.38,9,9,0,0,1-.94-1.62,9.12,9.12,0,0,1-.6-1.82,9.59,9.59,0,0,1,0-3.93ZM33.59,9.5V23.07a9.21,9.21,0,0,1,0-13.58ZM27.33,27.59c0-.26,0-.53,0-.8s0-.45,0-.68h0l.42-.2.93-.46L30,24.78h0a12.61,12.61,0,0,0,3.35,2.8H27.33Zm-9.08-2.81h0L21,26.1h0c0,.22,0,.45,0,.68s0,.54,0,.8H14.89a12.63,12.63,0,0,0,3.36-2.8ZM14.71,9.49a9,9,0,0,1,2.18,3,8.9,8.9,0,0,1,.6,1.82,9.34,9.34,0,0,1,0,3.93,9,9,0,0,1-.6,1.82,9,9,0,0,1-2.18,3h0a9.22,9.22,0,0,0,0-13.58V23.08h0V9.49Zm0,13.58V9.5a9.22,9.22,0,0,1,0,13.58Z" transform="translate(-0.05 0.22)"/></svg>